<?xml version="1.0" encoding="utf-8"?>
<!-- Generator: Adobe Illustrator 22.1.0, SVG Export Plug-In . SVG Version: 6.00 Build 0)  -->
<svg version="1.1" id="Layer_1" xmlns="http://www.w3.org/2000/svg" xmlns:xlink="http://www.w3.org/1999/xlink" x="0px" y="0px"
	 viewBox="0 0 512 512" style="enable-background:new 0 0 512 512;" xml:space="preserve">
<g>
	<title>buy-me-a-coffee</title>
	<g>
		<path d="M196.7,31l-22.8,52.5H140v47.2h13l13.3,84h-20.7l27.4,154.3l17.6-0.2L208.2,481h167.2l1.2-7.5L393,368.9l16.7,0.2
			L437,214.8h-19.8l13.2-84h14.2V83.5h-36L385.8,31L196.7,31z M206.6,46.1h169.5l14.4,33.4H192L206.6,46.1z M155,98.6h274.6v17.3
			H155L155,98.6z M163.5,229.8h255.7l-22,124.1l-106-1.1l-105.6,1.1L163.5,229.8z"/>
	</g>
</g>
</svg>
