<svg id="Capa_1" data-name="Capa 1" xmlns="http://www.w3.org/2000/svg" xmlns:xlink="http://www.w3.org/1999/xlink" viewBox="0 0 480 270"><defs><style>.cls-1{fill:url(#Degradado_sin_nombre);}.cls-2{fill:url(#Degradado_sin_nombre_2);}.cls-3{fill:#fff;}</style><linearGradient id="Degradado_sin_nombre" x1="41.02" y1="148.07" x2="123.33" y2="148.07" gradientTransform="matrix(1, 0, 0, -1, 0, 272)" gradientUnits="userSpaceOnUse"><stop offset="0" stop-color="#66a3d9"/><stop offset="0.7" stop-color="#0b1726"/></linearGradient><linearGradient id="Degradado_sin_nombre_2" x1="349.21" y1="137.71" x2="446.3" y2="137.71" gradientTransform="matrix(1, 0, 0, -1, 0, 272)" gradientUnits="userSpaceOnUse"><stop offset="0" stop-color="#5589b7"/><stop offset="0.69"/></linearGradient></defs><title>logo_2</title><polygon class="cls-1" points="41.02 2.69 116.69 245.16 123.33 223.44 54.61 2.69 41.02 2.69"/><polygon class="cls-2" points="349.21 2.69 433.02 265.9 446.3 265.9 362.49 2.69 349.21 2.69"/><path class="cls-3" d="M40.83,3,116.32,244.9l-7.6,23.69L40.17,48.76,35.78,197.59Q35.43,220,35.43,216q0,43.6,22.36,48.06v4.5l-4.62-.76q-18.56-2.25-24.52-2.23a236,236,0,0,0-28.65,3v-4.5q21-8.23,22.84-64.76L27.66,29.17C21.48,17.18,11.59,8.36,0,4.5V0A190.09,190.09,0,0,0,28.65,2.49ZM122.7,175.64,176.07.75H189l7.83,264.46h-6.5A143.08,143.08,0,0,0,172,266.72l-11,1.51V263.7q20-8.26,20-53.94c0,.49,0-5.12-.35-16.8L176.29,46.69,122.87,222.56,53.85.75H68Zm85.54,91.24L200,3.71h5.68a298.17,298.17,0,0,0,35.52-3v4.5c-7.88,1.89-14.61,7.75-18.36,16a67.18,67.18,0,0,0-6.75,31.43l.34,26.74L220.18,199q1.08,32.82,7.07,48.2t18.95,18.25v4.49q-25.37-3-38-3Z"/><path class="cls-3" d="M398.92,205.69l-14.7-46.26H322.94l-16,46.46-.82,3.28c0,.2-1,2.59-2.55,7.25A66.86,66.86,0,0,0,300,237.91c-.58,11.53,5.06,22.27,14.18,27v4.6a67.18,67.18,0,0,1-10-1.28,104.89,104.89,0,0,0-17.84-1.74,114.09,114.09,0,0,0-17.87,1.74,72.83,72.83,0,0,1-9.62,1.28v-4.66q18.3-14.06,33.25-57.82L347.37,45.41A70.62,70.62,0,0,0,330,15.62,40.62,40.62,0,0,0,304.13,4.13V.85h5.68a203.14,203.14,0,0,1,21.3,1.51c9,1,15.61,1.48,18.47,1.48l83.38,262q-16,.48-38.44,3v-4.49q12.54-3.28,12.54-20.38Q407.12,231.29,398.92,205.69Zm-71.07-66.83h50.07L353.86,63Zm119,128L363,3.71h16.26q3.32,13.13,9.3,32.81,6.65,21.21,7.46,25.2A44.46,44.46,0,0,1,397.53,67l39,121.63Q456.94,252,480,265.5V270a280.32,280.32,0,0,0-33.19-3.12Z"/></svg>