<svg id="Capa_1" data-name="Capa 1" xmlns="http://www.w3.org/2000/svg" xmlns:xlink="http://www.w3.org/1999/xlink" viewBox="0 0 480 270"><defs><style>.cls-1{fill:none;}.cls-2{clip-path:url(#clip-path);}.cls-3{fill:url(#Degradado_sin_nombre_30);}.cls-4{fill:url(#Degradado_sin_nombre_31);}.cls-5{fill:#fff;}</style><clipPath id="clip-path"><circle class="cls-1" cx="240" cy="135" r="107"/></clipPath><linearGradient id="Degradado_sin_nombre_30" x1="169.85" y1="131.64" x2="198.86" y2="131.64" gradientUnits="userSpaceOnUse"><stop offset="0" stop-color="#66a3d9"/><stop offset="0.7" stop-color="#0b1726"/></linearGradient><linearGradient id="Degradado_sin_nombre_31" x1="278.48" y1="134.8" x2="312.7" y2="134.8" gradientUnits="userSpaceOnUse"><stop offset="0" stop-color="#5589b7"/><stop offset="0.69"/></linearGradient></defs><title>logo</title><g class="cls-2"><rect width="491.4" height="288.8"/></g><polygon class="cls-3" points="169.85 94.69 196.52 168.59 198.86 161.97 174.64 94.69 169.85 94.69"/><polygon class="cls-4" points="278.48 94.69 308.02 174.91 312.7 174.91 283.16 94.69 278.48 94.69"/><path class="cls-5" d="M169.78,94.79l26.61,73.72-2.68,7.22-24.16-67L168,154.09c-.08,4.55-.12,6.43-.12,5.62q0,13.29,7.88,14.65v1.37l-1.63-.23c-4.36-.46-7.24-.68-8.64-.68a96,96,0,0,0-10.1.91v-1.37q7.41-2.51,8.05-19.74l1.7-51.86a16.76,16.76,0,0,0-9.75-7.52V93.87a77.54,77.54,0,0,0,10.1.76Zm28.86,52.61,18.81-53.3H222l2.76,80.6h-2.29a58.39,58.39,0,0,0-6.47.46l-3.88.46v-1.38q7.05-2.52,7.06-16.44c0,.15,0-1.56-.12-5.12l-1.53-44.58L198.7,161.7,174.37,94.1h5Zm30.15,27.81L225.88,95h2a121.21,121.21,0,0,0,12.52-.91v1.37a9.49,9.49,0,0,0-6.47,4.87,18.2,18.2,0,0,0-2.38,9.58l.12,8.15L233,154.51q.38,10,2.49,14.69t6.68,5.56v1.37Q233.23,175.22,228.79,175.21Z"/><path class="cls-5" d="M296,156.56l-5.18-14.1H269.22l-5.65,14.16-.29,1c0,.06-.34.79-.9,2.21a17.88,17.88,0,0,0-1.24,6.55,8.46,8.46,0,0,0,5,8.22V176a26.63,26.63,0,0,1-3.51-.39,42.85,42.85,0,0,0-6.29-.53,46.64,46.64,0,0,0-6.3.53,28.37,28.37,0,0,1-3.39.39v-1.42q6.45-4.28,11.72-17.62l19.46-49.25a21.07,21.07,0,0,0-6.12-9.08,15.42,15.42,0,0,0-9.12-3.5v-1h2c1.82,0,4.33.15,7.51.46s5.5.45,6.51.45L308,174.9q-5.64.15-13.55.91v-1.37q4.42-1,4.42-6.21Q298.89,164.36,296,156.56Zm-25.05-20.37H288.6l-8.48-23.13Zm41.95,39L283.34,95h5.73q1.17,4,3.28,10c1.56,4.31,2.43,6.87,2.63,7.68a12.49,12.49,0,0,1,.53,1.6l13.74,37.07q7.2,19.32,15.33,23.44v1.37A114.33,114.33,0,0,0,312.88,175.21Z"/></svg>